<svg xmlns="http://www.w3.org/2000/svg" xmlns:svg="http://www.w3.org/2000/svg" id="svg8" width="200mm" height="150mm" version="1.1" viewBox="0 0 200 150"><defs id="defs2"><marker id="marker1403" orient="auto" refX="0" refY="0" style="overflow:visible"><path id="path1401" d="M 8.7185878,4.0337352 -2.2072895,0.01601326 8.7185884,-4.0017078 c -1.7454984,2.3720609 -1.7354408,5.6174519 -6e-7,8.035443 z" transform="matrix(-1.1,0,0,-1.1,-1.1,0)" style="fill:#000;fill-opacity:1;fill-rule:evenodd;stroke:#000;stroke-width:.625;stroke-linejoin:round;stroke-opacity:1"/></marker><marker id="marker1393" orient="auto" refX="0" refY="0" style="overflow:visible"><path id="path1391" d="M 8.7185878,4.0337352 -2.2072895,0.01601326 8.7185884,-4.0017078 c -1.7454984,2.3720609 -1.7354408,5.6174519 -6e-7,8.035443 z" transform="matrix(-1.1,0,0,-1.1,-1.1,0)" style="fill:#000;fill-opacity:1;fill-rule:evenodd;stroke:#000;stroke-width:.625;stroke-linejoin:round;stroke-opacity:1"/></marker><marker id="marker1383" orient="auto" refX="0" refY="0" style="overflow:visible"><path id="path1381" d="M 8.7185878,4.0337352 -2.2072895,0.01601326 8.7185884,-4.0017078 c -1.7454984,2.3720609 -1.7354408,5.6174519 -6e-7,8.035443 z" transform="matrix(-1.1,0,0,-1.1,-1.1,0)" style="fill:#000;fill-opacity:1;fill-rule:evenodd;stroke:#000;stroke-width:.625;stroke-linejoin:round;stroke-opacity:1"/></marker><marker id="marker1373" orient="auto" refX="0" refY="0" style="overflow:visible"><path id="path1371" d="M 8.7185878,4.0337352 -2.2072895,0.01601326 8.7185884,-4.0017078 c -1.7454984,2.3720609 -1.7354408,5.6174519 -6e-7,8.035443 z" transform="matrix(-1.1,0,0,-1.1,-1.1,0)" style="fill:#000;fill-opacity:1;fill-rule:evenodd;stroke:#000;stroke-width:.625;stroke-linejoin:round;stroke-opacity:1"/></marker><marker id="marker1363" orient="auto" refX="0" refY="0" style="overflow:visible"><path id="path1361" d="M 8.7185878,4.0337352 -2.2072895,0.01601326 8.7185884,-4.0017078 c -1.7454984,2.3720609 -1.7354408,5.6174519 -6e-7,8.035443 z" transform="matrix(-1.1,0,0,-1.1,-1.1,0)" style="fill:#000;fill-opacity:1;fill-rule:evenodd;stroke:#000;stroke-width:.625;stroke-linejoin:round;stroke-opacity:1"/></marker><marker id="marker1353" orient="auto" refX="0" refY="0" style="overflow:visible"><path id="path1351" d="M 8.7185878,4.0337352 -2.2072895,0.01601326 8.7185884,-4.0017078 c -1.7454984,2.3720609 -1.7354408,5.6174519 -6e-7,8.035443 z" transform="matrix(-1.1,0,0,-1.1,-1.1,0)" style="fill:#000;fill-opacity:1;fill-rule:evenodd;stroke:#000;stroke-width:.625;stroke-linejoin:round;stroke-opacity:1"/></marker><marker id="marker1343" orient="auto" refX="0" refY="0" style="overflow:visible"><path id="path1341" d="M 8.7185878,4.0337352 -2.2072895,0.01601326 8.7185884,-4.0017078 c -1.7454984,2.3720609 -1.7354408,5.6174519 -6e-7,8.035443 z" transform="matrix(-1.1,0,0,-1.1,-1.1,0)" style="fill:#000;fill-opacity:1;fill-rule:evenodd;stroke:#000;stroke-width:.625;stroke-linejoin:round;stroke-opacity:1"/></marker><marker id="marker1333" orient="auto" refX="0" refY="0" style="overflow:visible"><path id="path1331" d="M 8.7185878,4.0337352 -2.2072895,0.01601326 8.7185884,-4.0017078 c -1.7454984,2.3720609 -1.7354408,5.6174519 -6e-7,8.035443 z" transform="matrix(-1.1,0,0,-1.1,-1.1,0)" style="fill:#000;fill-opacity:1;fill-rule:evenodd;stroke:#000;stroke-width:.625;stroke-linejoin:round;stroke-opacity:1"/></marker><marker id="marker1323" orient="auto" refX="0" refY="0" style="overflow:visible"><path id="path1321" d="M 8.7185878,4.0337352 -2.2072895,0.01601326 8.7185884,-4.0017078 c -1.7454984,2.3720609 -1.7354408,5.6174519 -6e-7,8.035443 z" transform="matrix(-1.1,0,0,-1.1,-1.1,0)" style="fill:#000;fill-opacity:1;fill-rule:evenodd;stroke:#000;stroke-width:.625;stroke-linejoin:round;stroke-opacity:1"/></marker></defs><g id="layer1"><text id="text855" x="15.875" y="140.229" xml:space="preserve" style="font-size:4.93889px;line-height:1.25;font-family:sans-serif;word-spacing:0;stroke-width:.264583"><tspan style="font-size:4.93889px;stroke-width:.264583" id="tspan853" x="15.875" y="140.229" dx="0">Overwritten: {p-&gt;x, p-&gt;y, p-&gt;z}</tspan></text><text style="font-size:4.9389px;line-height:1.25;font-family:sans-serif;word-spacing:0;stroke-width:.264583" id="text855-4" x="108.479" y="140.229" xml:space="preserve"><tspan id="tspan853-1" x="108.479" y="140.229" dx="0" style="font-size:4.9389px;stroke-width:.264583">Overwritten: {p-&gt;x, p-&gt;z}</tspan></text><text id="text855-4-1" x="66.146" y="119.062" xml:space="preserve" style="font-size:4.9389px;line-height:1.25;font-family:sans-serif;word-spacing:0;stroke-width:.264583"><tspan style="font-size:4.9389px;stroke-width:.264583" id="tspan853-1-1" x="66.146" y="119.062" dx="0">Overwritten: {p-&gt;x, p-&gt;z}</tspan></text><text id="text855-4-19" x="140.229" y="111.125" xml:space="preserve" style="font-size:4.9389px;line-height:1.25;font-family:sans-serif;word-spacing:0;stroke-width:.264583"><tspan style="font-size:4.9389px;stroke-width:.264583" id="tspan853-1-0" x="140.229" y="111.125" dx="0">Overwritten: {p-&gt;q}</tspan></text><text id="text855-4-2" x="103.188" y="95.25" xml:space="preserve" style="font-size:4.9389px;line-height:1.25;font-family:sans-serif;word-spacing:0;stroke-width:.264583"><tspan style="font-size:4.9389px;stroke-width:.264583" id="tspan853-1-00" x="103.188" y="95.25" dx="0">Overwritten: {}</tspan></text><path id="path909" d="M 66.145835,134.93749 100.54167,121.70832" style="fill:none;stroke:#000;stroke-width:.265;stroke-linecap:butt;stroke-linejoin:miter;stroke-miterlimit:4;stroke-dasharray:none;stroke-opacity:1;marker-end:url(#marker1393)"/><path id="path911" d="m 140.22917,134.93749 -39.6875,-13.22917" style="fill:none;stroke:#000;stroke-width:.265;stroke-linecap:butt;stroke-linejoin:miter;stroke-miterlimit:4;stroke-dasharray:none;stroke-opacity:1;marker-end:url(#marker1403)"/><path id="path913" d="M 100.54167,113.77082 123.03126,96.572903" style="fill:none;stroke:#000;stroke-width:.265;stroke-linecap:butt;stroke-linejoin:miter;stroke-miterlimit:4;stroke-dasharray:none;stroke-opacity:1;marker-end:url(#marker1373)"/><path id="path915" d="M 161.39584,105.83332 123.03126,96.572903" style="fill:none;stroke:#000;stroke-width:.265;stroke-linecap:butt;stroke-linejoin:miter;stroke-miterlimit:4;stroke-dasharray:none;stroke-opacity:1;marker-end:url(#marker1383)"/><text style="font-size:6.35px;line-height:1.25;font-family:sans-serif;word-spacing:0;stroke-width:.264583" id="text855-4-2-6" x="7.938" y="92.604" xml:space="preserve"><tspan id="tspan853-1-00-3" x="7.938" y="92.604" style="font-size:6.35px;stroke-width:.264583">Normal states</tspan></text><rect id="rect935" width="195.792" height="60.854" x="2.646" y="84.667" style="fill:none;stroke:#000;stroke-width:.264999"/><rect id="rect937" width="195.792" height="71.438" x="2.646" y="2.646" style="fill:none;stroke:#000;stroke-width:.264999"/><text id="text855-4-2-6-8" x="7.938" y="10.583" xml:space="preserve" style="font-size:6.35px;line-height:1.25;font-family:sans-serif;word-spacing:0;stroke-width:.264583"><tspan style="font-size:6.35px;stroke-width:.264583" id="tspan853-1-00-3-4" x="7.938" y="10.583">Failure states</tspan></text><text style="font-size:4.9389px;line-height:1.25;font-family:sans-serif;word-spacing:0;stroke-width:.264583" id="text855-4-2-8" x="5.292" y="68.792" xml:space="preserve"><tspan id="tspan853-1-00-5" x="5.292" y="68.792" style="font-size:4.9389px;stroke-width:.264583">{Unsafe read at line 3}</tspan></text><text id="text855-4-2-8-1" x="66.146" y="68.792" xml:space="preserve" style="font-size:4.9389px;line-height:1.25;font-family:sans-serif;word-spacing:0;stroke-width:.264583"><tspan style="font-size:4.9389px;stroke-width:.264583" id="tspan853-1-00-5-1" x="66.146" y="68.792">{Pointer escape at line 5}</tspan></text><text id="text855-4-2-8-8" x="134.938" y="68.792" xml:space="preserve" style="font-size:4.9389px;line-height:1.25;font-family:sans-serif;word-spacing:0;stroke-width:.264583"><tspan style="font-size:4.9389px;stroke-width:.264583" id="tspan853-1-00-5-8" x="134.938" y="68.792">{Unsafe read at line 7}</tspan></text><text id="text855-4-2-8-9" x="7.938" y="44.979" xml:space="preserve" style="font-size:4.9389px;line-height:1.25;font-family:sans-serif;word-spacing:0;stroke-width:.264583"><tspan style="font-size:4.9389px;stroke-width:.264583" id="tspan853-1-00-5-4" x="7.938" y="44.979">{Unsafe read at line 3, Pointer escape at line 5}</tspan></text><path id="path1019" d="m 31.75,63.499999 31.749999,-15.875" style="fill:none;stroke:#000;stroke-width:.265;stroke-linecap:butt;stroke-linejoin:miter;stroke-miterlimit:4;stroke-dasharray:none;stroke-opacity:1;marker-end:url(#marker1333)"/><path id="path1021" d="m 100.54167,63.499999 -37.041671,-15.875" style="fill:none;stroke:#000;stroke-width:.265;stroke-linecap:butt;stroke-linejoin:miter;stroke-miterlimit:4;stroke-dasharray:none;stroke-opacity:1;marker-end:url(#marker1343)"/><text style="font-size:4.9389px;line-height:1.25;font-family:sans-serif;word-spacing:0;stroke-width:.264583" id="text855-4-2-8-9-8" x="10.583" y="23.813" xml:space="preserve"><tspan id="tspan1041" x="10.583" y="23.813" style="font-size:4.9389px;stroke-width:.264583">{Unsafe read at line 3, Pointer escape at line 5, Unsafe read at line 7}</tspan></text><path id="path1045" d="M 74.083332,39.687499 124.35417,26.458333" style="fill:none;stroke:#000;stroke-width:.265;stroke-linecap:butt;stroke-linejoin:miter;stroke-miterlimit:4;stroke-dasharray:none;stroke-opacity:1;marker-end:url(#marker1353)"/><path id="path1047" d="M 161.39583,63.499999 124.35417,26.458333" style="fill:none;stroke:#000;stroke-width:.265;stroke-linecap:butt;stroke-linejoin:miter;stroke-miterlimit:4;stroke-dasharray:none;stroke-opacity:1;marker-end:url(#marker1363)"/><path id="path1049" d="M 100.54167,84.666666 V 74.083333" style="fill:none;stroke:#000;stroke-width:.265;stroke-linecap:butt;stroke-linejoin:miter;stroke-miterlimit:4;stroke-dasharray:none;stroke-opacity:1;marker-end:url(#marker1323)"/></g></svg>